<?xml version="1.0" encoding="UTF-8" standalone="no"?>
<!-- Created with Inkscape (http://www.inkscape.org/) -->

<svg
   width="8.5in"
   height="11in"
   viewBox="0 0 215.9 279.4"
   version="1.1"
   id="svg2891"
   inkscape:version="1.1 (c68e22c387, 2021-05-23)"
   sodipodi:docname="man.svg"
   xmlns:inkscape="http://www.inkscape.org/namespaces/inkscape"
   xmlns:sodipodi="http://sodipodi.sourceforge.net/DTD/sodipodi-0.dtd"
   xmlns="http://www.w3.org/2000/svg"
   xmlns:svg="http://www.w3.org/2000/svg">
  <sodipodi:namedview
     id="namedview2893"
     pagecolor="#ffffff"
     bordercolor="#666666"
     borderopacity="1.0"
     inkscape:pageshadow="2"
     inkscape:pageopacity="0.0"
     inkscape:pagecheckerboard="0"
     inkscape:document-units="mm"
     showgrid="false"
     units="in"
     inkscape:zoom="0.74118967"
     inkscape:cx="397.33419"
     inkscape:cy="346.06526"
     inkscape:window-width="1920"
     inkscape:window-height="1017"
     inkscape:window-x="-8"
     inkscape:window-y="-8"
     inkscape:window-maximized="1"
     inkscape:current-layer="layer1" />
  <defs
     id="defs2888">
    <clipPath
       clipPathUnits="userSpaceOnUse"
       id="clipPath1049">
      <path
         d="m 490.063,387.545 h 12.461 v -12.461 h -12.461 z"
         id="path1047" />
    </clipPath>
    <clipPath
       clipPathUnits="userSpaceOnUse"
       id="clipPath1065">
      <path
         d="m 456.406,387.545 h 12.462 v -12.461 h -12.462 z"
         id="path1063" />
    </clipPath>
  </defs>
  <g
     inkscape:label="Layer 1"
     inkscape:groupmode="layer"
     id="layer1">
    <g
       id="g3226"
       transform="matrix(4.5797074,0,0,4.6939577,-317.07032,-176.93561)">
      <g
         id="g1023"
         transform="matrix(0.35277777,0,0,-0.35277777,82.957054,48.345105)">
        <path
           d="m 0,0 c -1.095,-5.51 -1.42,-11.152 -1.101,-16.74 0.33,-5.584 1.268,-11.151 3.099,-16.424 1.835,-5.248 4.542,-10.258 8.427,-14.221 3.859,-3.973 8.917,-6.714 14.341,-7.815 5.409,-1.066 11.134,-1.103 16.459,0.372 2.658,0.747 5.197,1.911 7.476,3.467 2.29,1.546 4.286,3.502 6.006,5.671 3.444,4.362 5.667,9.611 7.099,15 1.456,5.404 2.141,11.007 2.322,16.619 0.057,-5.616 -0.508,-11.259 -1.821,-16.747 -1.35,-5.462 -3.499,-10.828 -6.955,-15.372 -3.422,-4.552 -8.362,-7.992 -13.871,-9.535 -2.745,-0.793 -5.595,-1.16 -8.438,-1.22 -2.841,-0.039 -5.692,0.181 -8.481,0.794 -5.586,1.16 -10.821,4.031 -14.773,8.146 -3.993,4.095 -6.716,9.249 -8.478,14.609 -1.769,5.377 -2.653,11.007 -2.866,16.635 C -1.727,-11.133 -1.299,-5.47 0,0"
           style="fill:#000000;fill-opacity:1;fill-rule:nonzero;stroke:none"
           id="path1025" />
      </g>
      <g
         id="g1027"
         transform="matrix(0.35277777,0,0,-0.35277777,90.200036,55.532423)">
        <path
           d="m 0,0 c 0,-1.37 -0.833,-2.48 -1.86,-2.48 -1.028,0 -1.86,1.11 -1.86,2.48 0,1.37 0.832,2.48 1.86,2.48 C -0.833,2.48 0,1.37 0,0"
           style="fill:#000000;fill-opacity:1;fill-rule:nonzero;stroke:none"
           id="path1029" />
      </g>
      <g
         id="g1031"
         transform="matrix(0.35277777,0,0,-0.35277777,98.681526,55.834401)">
        <path
           d="m 0,0 c 0,-1.37 -0.833,-2.48 -1.86,-2.48 -1.027,0 -1.86,1.11 -1.86,2.48 0,1.37 0.833,2.48 1.86,2.48 C -0.833,2.48 0,1.37 0,0"
           style="fill:#000000;fill-opacity:1;fill-rule:nonzero;stroke:none"
           id="path1033" />
      </g>
      <g
         id="g1035"
         transform="matrix(0.35277777,0,0,-0.35277777,93.815656,55.182397)">
        <path
           d="m 0,0 c 0.148,-1.364 -0.068,-2.782 -0.543,-4.091 -0.456,-1.318 -1.179,-2.547 -1.969,-3.657 -0.774,-1.073 -1.493,-2.187 -1.283,-3.353 0.205,-1.152 1.175,-2.281 2.526,-2.529 -1.383,-0.161 -2.874,0.861 -3.285,2.349 -0.242,0.748 -0.103,1.574 0.159,2.259 0.277,0.693 0.682,1.285 1.065,1.848 C -1.753,-5.021 -0.502,-2.698 0,0"
           style="fill:#000000;fill-opacity:1;fill-rule:nonzero;stroke:none"
           id="path1037" />
      </g>
      <g
         id="g1039"
         transform="matrix(0.35277777,0,0,-0.35277777,90.461166,59.599527)">
        <path
           d="m 0,0 c 0.404,-1.073 0.896,-2.103 1.512,-3.047 0.592,-0.955 1.297,-1.834 2.123,-2.56 0.826,-0.719 1.741,-1.338 2.77,-1.671 0.247,-0.106 0.504,-0.186 0.77,-0.235 0.263,-0.055 0.521,-0.136 0.788,-0.173 0.539,-0.027 1.078,-0.138 1.614,-0.064 2.166,0.036 4.182,1.124 5.767,2.66 0.814,0.756 1.504,1.652 2.128,2.591 0.644,0.929 1.195,1.929 1.68,2.968 -0.598,-2.217 -1.679,-4.334 -3.255,-6.094 -0.791,-0.87 -1.712,-1.66 -2.793,-2.206 C 12.025,-8.353 10.835,-8.742 9.618,-8.748 7.213,-8.888 4.727,-7.908 3.104,-6.16 1.448,-4.448 0.421,-2.255 0,0"
           style="fill:#000000;fill-opacity:1;fill-rule:nonzero;stroke:none"
           id="path1041" />
      </g>
      <g
         id="g1043"
         transform="matrix(0.35277777,0,0,-0.35277777,-75.517318,193.67885)">
        <g
           id="g1045" />
        <g
           id="g1057">
          <g
             clip-path="url(#clipPath1049)"
             opacity="0.399994"
             id="g1055">
            <g
               transform="translate(502.5244,381.3145)"
               id="g1053">
              <path
                 d="m 0,0 c 0,-3.441 -2.789,-6.23 -6.23,-6.23 -3.442,0 -6.231,2.789 -6.231,6.23 0,3.441 2.789,6.231 6.231,6.231 C -2.789,6.231 0,3.441 0,0"
                 style="fill:#e891a1;fill-opacity:1;fill-rule:nonzero;stroke:none"
                 id="path1051" />
            </g>
          </g>
        </g>
      </g>
      <g
         id="g1059"
         transform="matrix(0.35277777,0,0,-0.35277777,-75.517318,193.67885)">
        <g
           id="g1061" />
        <g
           id="g1073">
          <g
             clip-path="url(#clipPath1065)"
             opacity="0.399994"
             id="g1071">
            <g
               transform="translate(468.8682,381.3145)"
               id="g1069">
              <path
                 d="m 0,0 c 0,-3.441 -2.79,-6.23 -6.231,-6.23 -3.441,0 -6.231,2.789 -6.231,6.23 0,3.441 2.79,6.231 6.231,6.231 C -2.79,6.231 0,3.441 0,0"
                 style="fill:#e891a1;fill-opacity:1;fill-rule:nonzero;stroke:none"
                 id="path1067" />
            </g>
          </g>
        </g>
      </g>
      <g
         id="g1075"
         transform="matrix(0.35277777,0,0,-0.35277777,87.195926,52.577909)">
        <path
           d="M 0,0 8.516,2.597 C 8.516,2.597 4.728,6.459 0,0"
           style="fill:#000000;fill-opacity:1;fill-rule:nonzero;stroke:none"
           id="path1077" />
      </g>
      <g
         id="g1079"
         transform="matrix(0.35277777,0,0,-0.35277777,99.164506,53.358571)">
        <path
           d="m 0,0 -6.459,3.063 c 0,0 3.463,3.729 6.459,-3.063"
           style="fill:#000000;fill-opacity:1;fill-rule:nonzero;stroke:none"
           id="path1081" />
      </g>
      <g
         id="g1083"
         transform="matrix(0.35277777,0,0,-0.35277777,105.43909,55.829744)">
        <path
           d="m 0,0 c 0.855,1.429 1.985,2.702 3.324,3.746 1.347,1.01 3.043,1.737 4.835,1.626 0.888,-0.04 1.759,-0.306 2.54,-0.708 0.78,-0.382 1.539,-0.976 2.061,-1.714 1.071,-1.495 1.32,-3.367 1.155,-5.088 -0.384,-3.472 -2.492,-6.677 -5.513,-8.357 -1.494,-0.861 -3.189,-1.305 -4.874,-1.427 -1.691,-0.09 -3.378,0.13 -4.967,0.624 1.638,-0.274 3.303,-0.387 4.919,-0.139 1.612,0.216 3.186,0.72 4.53,1.6 2.705,1.702 4.584,4.659 4.911,7.802 0.166,1.55 -0.065,3.191 -0.936,4.438 C 11.558,3.035 10.988,3.514 10.291,3.886 9.605,4.256 8.864,4.52 8.094,4.603 6.544,4.791 4.953,4.234 3.605,3.342 2.227,2.474 1.038,1.294 0,0"
           style="fill:#000000;fill-opacity:1;fill-rule:nonzero;stroke:none"
           id="path1085" />
      </g>
      <g
         id="g1087"
         transform="matrix(0.35277777,0,0,-0.35277777,105.11489,58.013756)">
        <path
           d="m 0,0 c 0.452,1.009 1.109,1.913 1.854,2.733 0.744,0.823 1.612,1.538 2.554,2.145 0.95,0.598 2.01,1.034 3.105,1.286 1.096,0.265 2.248,0.234 3.319,0.014 C 9.741,5.981 8.711,5.796 7.73,5.414 6.759,5.033 5.813,4.601 4.937,4.03 3.163,2.921 1.573,1.526 0,0"
           style="fill:#000000;fill-opacity:1;fill-rule:nonzero;stroke:none"
           id="path1089" />
      </g>
      <g
         id="g1091"
         transform="matrix(0.35277777,0,0,-0.35277777,82.532627,53.886009)">
        <path
           d="m 0,0 c -1.053,1.27 -2.266,2.415 -3.666,3.226 -1.37,0.837 -2.976,1.301 -4.509,1.045 -1.499,-0.288 -3.011,-1.051 -3.802,-2.315 -0.832,-1.262 -1.051,-2.891 -0.858,-4.435 0.356,-3.122 2.244,-6.047 4.944,-7.726 2.716,-1.714 6.17,-2.017 9.405,-1.432 -1.581,-0.489 -3.258,-0.713 -4.941,-0.626 -1.674,0.12 -3.363,0.55 -4.851,1.401 -3.014,1.652 -5.133,4.822 -5.549,8.269 -0.199,1.711 0.043,3.567 1.058,5.077 0.5,0.746 1.227,1.36 2,1.764 0.766,0.416 1.617,0.704 2.494,0.794 1.772,0.192 3.5,-0.441 4.879,-1.398 C -2.027,2.651 -0.871,1.409 0,0"
           style="fill:#000000;fill-opacity:1;fill-rule:nonzero;stroke:none"
           id="path1093" />
      </g>
      <g
         id="g1095"
         transform="matrix(0.35277777,0,0,-0.35277777,78.780235,54.06395)">
        <path
           d="m 0,0 c 1.154,0.277 2.378,0.256 3.56,0.045 1.187,-0.202 2.342,-0.631 3.392,-1.242 1.039,-0.624 2.01,-1.388 2.753,-2.343 0.787,-0.914 1.342,-1.997 1.743,-3.103 -0.767,0.909 -1.469,1.81 -2.313,2.571 -0.808,0.79 -1.721,1.449 -2.683,2.01 C 4.526,-0.919 2.33,-0.286 0,0"
           style="fill:#000000;fill-opacity:1;fill-rule:nonzero;stroke:none"
           id="path1097" />
      </g>
      <g
         id="g1099"
         transform="matrix(0.35277777,0,0,-0.35277777,83.557906,59.990723)">
        <path
           d="m 0,0 c 0,0 12.446,-20.83 22.389,-7.78 l 3.765,-1.291 c 0,0 -0.58,-5.545 2.923,-5.793 3.504,-0.249 2.69,5.863 2.69,5.863 l 3.718,1.193 c 0,0 6.17,-16.759 24.253,7.853 0,0 -5.329,-24.585 -30.101,-23.476 C 4.864,-22.322 0,0 0,0"
           style="fill:#000000;fill-opacity:1;fill-rule:nonzero;stroke:none"
           id="path1101" />
      </g>
      <g
         id="g1103"
         transform="matrix(0.35277777,0,0,-0.35277777,106.73202,54.518716)">
        <path
           d="m 0,0 c 0,0 8.344,24.244 3.8,32.119 -4.543,7.874 -14.289,5.149 -14.289,5.149 0,0 -18.42,16.973 -46.283,7.123 -27.864,-9.849 -17.667,4.185 -23.674,3.074 -6.007,-1.111 -5.502,-11.106 -0.001,-14.438 -1.376,0.834 -2.608,1.768 -4.167,2.286 -1.678,0.559 -4.574,0.62 -5.384,-1.402 -1.577,-3.939 2.627,-10.089 5.44,-12.466 4.705,-3.975 11.273,-4.531 17.164,-3.945 0.976,0.097 1.948,0.228 2.915,0.384 26.181,4.24 36.137,17.054 50.391,4.939 9.893,-8.407 10.917,-17.788 10.714,-22.827 -0.09,-2.221 -0.291,-3.712 -0.291,-3.712 l 1.417,1.874 z"
           style="fill:#000000;fill-opacity:1;fill-rule:nonzero;stroke:none"
           id="path1105" />
      </g>
      <g
         id="g1107"
         transform="matrix(0.35277777,0,0,-0.35277777,81.520825,52.838365)">
        <path
           d="m 0,0 -2.045,14.941 6.427,-0.974 c 0,0 -1.961,-11.402 -1.687,-16.657 0,0 -1.086,1.687 -2.695,2.69"
           style="fill:#000000;fill-opacity:1;fill-rule:nonzero;stroke:none"
           id="path1109" />
      </g>
      <g
         id="g1111"
         transform="matrix(0.35277777,0,0,-0.35277777,89.021476,73.179073)">
        <path
           d="m 0,0 c 0,0 23.597,-1.399 27.085,13.148 v 2.326 c 0,0 -15.622,-3.984 -25.394,0.54 z"
           style="fill:#000000;fill-opacity:1;fill-rule:nonzero;stroke:none"
           id="path1113" />
      </g>
      <g
         id="g1115"
         transform="matrix(0.35277777,0,0,-0.35277777,95.722526,78.845389)">
        <path
           d="M 0,0 -0.152,0.988 C 3.235,1.507 6.769,2.711 10.354,4.569 L 7.271,32.012 8.266,32.124 11.425,4.001 11.123,3.842 C 7.334,1.843 3.592,0.55 0,0"
           style="fill:#000000;fill-opacity:1;fill-rule:nonzero;stroke:none"
           id="path1117" />
      </g>
      <g
         id="g1119"
         transform="matrix(0.35277777,0,0,-0.35277777,89.260206,67.512933)">
        <path
           d="m 0,0 c 2.052,-0.977 4.226,-1.631 6.426,-2.082 2.204,-0.436 4.441,-0.709 6.688,-0.689 2.241,0.005 4.493,0.146 6.706,0.573 2.229,0.35 4.4,0.98 6.588,1.61 -1.046,-0.44 -2.097,-0.886 -3.173,-1.267 -1.097,-0.304 -2.175,-0.707 -3.303,-0.909 -0.559,-0.124 -1.12,-0.242 -1.683,-0.348 l -1.706,-0.206 c -0.568,-0.082 -1.14,-0.127 -1.714,-0.141 -0.573,-0.019 -1.146,-0.07 -1.72,-0.062 -2.295,0.044 -4.59,0.313 -6.812,0.88 C 4.083,-2.065 1.908,-1.252 0,0"
           style="fill:#ffffff;fill-opacity:1;fill-rule:nonzero;stroke:none"
           id="path1121" />
      </g>
      <g
         id="g1123"
         transform="matrix(0.35277777,0,0,-0.35277777,69.547371,97.006212)">
        <path
           d="m 0,0 c -0.23,-0.858 132.017,0.437 132.017,0.437 0,0 1.216,39.169 -36.356,56.454 l -0.745,-0.794 c 0,0 -6.966,-10.694 -20.937,-14.317 L 76.167,59.385 63.155,58.701 42.624,55.616 C 42.624,55.616 11.565,43.206 0,0"
           style="fill:#e891a1;fill-opacity:1;fill-rule:nonzero;stroke:none"
           id="path1125" />
      </g>
      <g
         id="g1127"
         transform="matrix(0.35277777,0,0,-0.35277777,69.32826,97.183272)">
        <path
           d="m 0,0 0.133,0.608 c 0.307,1.419 1.525,5.566 2.032,7.007 0.26,0.769 0.547,1.531 0.834,2.292 0.742,1.979 1.43,3.717 2.103,5.313 1.89,4.49 3.843,8.431 5.969,12.05 1.329,2.294 2.783,4.525 4.319,6.626 2.506,3.42 5.294,6.573 8.282,9.37 0.974,0.912 1.978,1.799 3.072,2.71 7.917,6.637 17.454,11.895 28.344,15.626 l 0.324,-0.946 C 44.639,56.965 35.21,51.768 27.386,45.208 26.306,44.309 25.314,43.436 24.355,42.536 21.411,39.781 18.666,36.675 16.196,33.306 14.682,31.233 13.248,29.033 11.935,26.766 9.83,23.184 7.896,19.281 6.023,14.832 5.355,13.248 4.673,11.521 3.935,9.555 3.651,8.804 3.368,8.053 3.11,7.289 2.681,6.067 1.689,2.721 1.255,1.004 l 130.874,0.434 c -0.028,0.915 -0.132,3.038 -0.52,5.945 -0.362,2.615 -0.834,5.076 -1.44,7.523 -0.998,4.129 -2.348,8.135 -4.014,11.908 -1.057,2.371 -2.152,4.508 -3.346,6.533 -2.582,4.41 -5.684,8.409 -9.22,11.888 -7.563,7.467 -17.234,12.65 -28.745,15.408 l 0.232,0.972 c 11.692,-2.801 21.521,-8.072 29.215,-15.667 3.598,-3.541 6.754,-7.61 9.38,-12.094 1.213,-2.057 2.325,-4.228 3.398,-6.634 1.691,-3.83 3.06,-7.892 4.072,-12.076 0.614,-2.478 1.091,-4.974 1.46,-7.626 0.532,-3.991 0.538,-6.475 0.538,-6.579 V 0.441 Z"
           style="fill:#000000;fill-opacity:1;fill-rule:nonzero;stroke:none"
           id="path1129" />
      </g>
      <g
         id="g1131"
         transform="matrix(0.35277777,0,0,-0.35277777,88.093356,72.59459)">
        <path
           d="m 0,0 c 0,0 8.114,-7.911 16.288,-9.956 l -4.321,-17.462 c 0,0 -13.469,2.677 -20.938,14.317 z"
           style="fill:#ffffff;fill-opacity:1;fill-rule:nonzero;stroke:none"
           id="path1133" />
      </g>
      <g
         id="g1135"
         transform="matrix(0.35277777,0,0,-0.35277777,85.140576,77.218943)">
        <path
           d="m 0,0 c 6.515,-9.894 17.576,-13.115 19.97,-13.711 l 4.085,16.506 c -7.063,1.956 -13.84,7.914 -15.603,9.548 z m 20.708,-14.893 -0.469,0.093 c -0.136,0.027 -13.763,2.853 -21.26,14.537 L -1.2,0.016 8.293,13.881 8.719,13.466 C 8.8,13.388 16.834,5.625 24.779,3.638 l 0.485,-0.121 z"
           style="fill:#000000;fill-opacity:1;fill-rule:nonzero;stroke:none"
           id="path1137" />
      </g>
      <g
         id="g1139"
         transform="matrix(0.35277777,0,0,-0.35277777,100.04508,72.505549)">
        <path
           d="m 0,0 c 0,0 -8.619,-8.163 -16.793,-10.208 l 4.321,-17.462 c 0,0 13.469,2.676 20.938,14.316 z"
           style="fill:#ffffff;fill-opacity:1;fill-rule:nonzero;stroke:none"
           id="path1141" />
      </g>
      <g
         id="g1143"
         transform="matrix(0.35277777,0,0,-0.35277777,94.333816,76.232964)">
        <path
           d="m 0,0 4.085,-16.506 c 2.394,0.596 13.463,3.818 19.977,13.722 L 16.088,9.792 C 14.24,8.123 7.09,1.967 0,0 m 3.347,-17.688 -4.556,18.41 0.484,0.121 c 7.954,1.99 16.486,10.005 16.571,10.086 l 0.44,0.418 8.962,-14.136 -0.172,-0.269 C 17.579,-14.742 3.952,-17.568 3.815,-17.595 Z"
           style="fill:#000000;fill-opacity:1;fill-rule:nonzero;stroke:none"
           id="path1145" />
      </g>
      <g
         id="g1147"
         transform="matrix(0.35277777,0,0,-0.35277777,94.948426,84.845363)">
        <path
           d="m 0,0 c 0,-1.736 -1.407,-3.143 -3.144,-3.143 -1.735,0 -3.142,1.407 -3.142,3.143 0,1.736 1.407,3.143 3.142,3.143 C -1.407,3.143 0,1.736 0,0"
           style="fill:#000000;fill-opacity:1;fill-rule:nonzero;stroke:none"
           id="path1149" />
      </g>
      <g
         id="g1151"
         transform="matrix(0.35277777,0,0,-0.35277777,94.948426,89.877773)">
        <path
           d="m 0,0 c 0,-1.736 -1.407,-3.143 -3.144,-3.143 -1.735,0 -3.142,1.407 -3.142,3.143 0,1.736 1.407,3.143 3.142,3.143 C -1.407,3.143 0,1.736 0,0"
           style="fill:#000000;fill-opacity:1;fill-rule:nonzero;stroke:none"
           id="path1153" />
      </g>
    </g>
  </g>
</svg>
