<?xml version="1.0" encoding="utf-8"?>
<!-- Generator: Adobe Illustrator 25.2.1, SVG Export Plug-In . SVG Version: 6.00 Build 0)  -->
<svg version="1.1" baseProfile="basic" xmlns="http://www.w3.org/2000/svg" xmlns:xlink="http://www.w3.org/1999/xlink" x="0px"
	 y="0px" viewBox="0 0 492 492" xml:space="preserve">
<style type="text/css">
	.st0{fill-rule:evenodd;clip-rule:evenodd;fill:#BDC9CF;}
	.st1{fill:#013668;}
	.st2{fill-rule:evenodd;clip-rule:evenodd;fill:#8F8F8F;}
	.st3{fill-rule:evenodd;clip-rule:evenodd;fill:#D2F3F7;}
	.st4{fill-rule:evenodd;clip-rule:evenodd;fill:#E1E1E1;}
	.st5{fill-rule:evenodd;clip-rule:evenodd;fill:#013668;}
	.st6{fill-rule:evenodd;clip-rule:evenodd;fill:#6AC2CB;}
	.st7{fill-rule:evenodd;clip-rule:evenodd;fill:#7C7C7C;}
	.st8{fill-rule:evenodd;clip-rule:evenodd;fill:#E49278;}
	.st9{fill-rule:evenodd;clip-rule:evenodd;fill:#FFE698;}
</style>
<g id="Layer_1">
	<rect x="78.18" y="184.63" class="st0" width="336.16" height="218.64"/>
	<path class="st1" d="M80.58,400.87h331.36V187.03H80.58V400.87L80.58,400.87z M414.34,405.67H78.18c-1.33,0-2.4-1.08-2.4-2.4
		V184.63c0-1.33,1.07-2.4,2.4-2.4h336.16c1.33,0,2.4,1.07,2.4,2.4v218.64C416.75,404.59,415.67,405.67,414.34,405.67z"/>
	<path class="st1" d="M108.8,339.19h151.47h2.34v-2.87V198.5v-2.87h-2.34H108.8h-2.34v2.87v137.82v2.87H108.8L108.8,339.19z
		 M257.93,333.46H111.15V201.37h146.78V333.46z"/>
	<path class="st1" d="M171.74,262.68H108.8h-2.34v2.87v70.78v2.87h2.34h62.94h2.34v-2.87v-70.78v-2.87H171.74L171.74,262.68z
		 M111.15,268.41h58.26v65.05h-58.26V268.41z"/>
	<path class="st1" d="M169.4,262.68h-58.26v-61.31h58.26V262.68L169.4,262.68z M108.8,268.41h62.94h2.34v-2.87V198.5v-2.87h-2.34
		H108.8h-2.34l0,2.87v67.04l0,2.87H108.8z"/>
	<path class="st2" d="M290.92,403.27h101.94V203.66c0-1.5-1.08-2.72-2.4-2.72h-97.14c-1.32,0-2.4,1.23-2.4,2.72V403.27z"/>
	<path class="st1" d="M293.31,400.87h97.14V203.66c0-0.14-0.04-0.25-0.09-0.32H293.4c-0.05,0.07-0.08,0.18-0.08,0.32V400.87
		L293.31,400.87z M392.86,405.67H290.92c-1.33,0-2.4-1.08-2.4-2.4V203.66c0-1.34,0.5-2.59,1.32-3.51c0.88-1,2.11-1.62,3.49-1.62
		h97.14c1.29,0,2.45,0.54,3.32,1.43c0.06,0.06,0.12,0.12,0.18,0.18c0.8,0.91,1.31,2.16,1.31,3.51v199.61
		C395.26,404.59,394.18,405.67,392.86,405.67z"/>
	<path class="st1" d="M300.55,323.33h82.67V192.48c0-1.05-1.08-1.91-2.4-1.91h-77.87c-1.32,0-2.4,0.86-2.4,1.91V323.33z"/>
	<rect x="304.73" y="195.89" class="st3" width="74.32" height="122.12"/>
	<rect x="290.92" y="339.46" class="st2" width="101.94" height="63.81"/>
	<path class="st1" d="M390.46,341.86h-97.14v59.01h97.14V341.86L390.46,341.86z M290.92,337.06h101.94c1.33,0,2.4,1.07,2.4,2.4
		v63.81c0,1.33-1.08,2.4-2.4,2.4H290.92c-1.33,0-2.4-1.08-2.4-2.4v-63.81C288.51,338.14,289.59,337.06,290.92,337.06z"/>
	<polygon class="st1" points="320.1,253.79 340.84,210.67 341.89,208.79 342.93,210.67 363.67,253.79 361.58,254.95 341.89,213.72 
		322.2,254.95 	"/>
	<path class="st4" d="M390.62,108.5H100.27c-0.09-19.56,5.56-37.59,23.06-37.59h244.13C384.92,70.91,390.46,89.1,390.62,108.5z"/>
	<path class="st1" d="M390.62,110.9H100.27c-1.33,0-2.4-1.07-2.4-2.4c0-0.07,0-0.14,0.01-0.21l0-0.25h-0.01
		c0-10.01,1.5-19.65,5.28-26.9c3.98-7.63,10.39-12.59,20.06-12.63h0.01l0.12,0v-0.01h244.13c8.86,0,14.97,4.17,19.03,10.76
		c4.63,7.52,6.43,18.21,6.52,29.22c0.01,1.32-1.05,2.4-2.37,2.41L390.62,110.9L390.62,110.9L390.62,110.9z M102.69,106.1h285.49
		c-0.3-9.34-1.96-18.16-5.76-24.32c-3.19-5.18-8-8.47-14.96-8.47H123.33V73.3h-0.11h0c-7.61,0.03-12.67,3.98-15.84,10.06
		C104.25,89.38,102.87,97.49,102.69,106.1z"/>
	<rect x="308.38" y="253.5" class="st5" width="67.03" height="24.94"/>
	<rect x="309.58" y="254.7" class="st6" width="64.62" height="22.54"/>
	<path class="st1" d="M316.45,266.06c0-1.37,0.2-2.52,0.61-3.45c0.31-0.68,0.72-1.3,1.25-1.84c0.53-0.54,1.11-0.95,1.74-1.21
		c0.84-0.36,1.8-0.53,2.9-0.53c1.98,0,3.56,0.61,4.75,1.84c1.19,1.23,1.78,2.93,1.78,5.12c0,2.17-0.59,3.87-1.77,5.09
		c-1.18,1.22-2.76,1.84-4.73,1.84c-2,0-3.59-0.61-4.77-1.83C317.04,269.88,316.45,268.2,316.45,266.06L316.45,266.06z
		 M319.24,265.97c0,1.52,0.35,2.68,1.05,3.46c0.7,0.79,1.6,1.18,2.68,1.18c1.08,0,1.97-0.39,2.66-1.17c0.69-0.78,1.04-1.95,1.04-3.5
		c0-1.54-0.34-2.69-1.01-3.45c-0.68-0.76-1.57-1.14-2.69-1.14c-1.12,0-2.02,0.38-2.71,1.15
		C319.59,263.26,319.24,264.42,319.24,265.97L319.24,265.97z M331.6,272.69v-13.44h4.35c1.65,0,2.73,0.07,3.23,0.2
		c0.77,0.2,1.42,0.64,1.94,1.31c0.52,0.68,0.78,1.55,0.78,2.62c0,0.83-0.15,1.52-0.45,2.08c-0.3,0.56-0.68,1-1.14,1.33
		c-0.46,0.32-0.93,0.53-1.41,0.64c-0.65,0.13-1.59,0.19-2.82,0.19h-1.77v5.07H331.6L331.6,272.69z M334.32,261.53v3.81h1.48
		c1.07,0,1.79-0.07,2.15-0.21c0.36-0.14,0.64-0.36,0.85-0.66c0.2-0.3,0.31-0.65,0.31-1.05c0-0.49-0.14-0.89-0.43-1.21
		c-0.29-0.32-0.65-0.52-1.09-0.59c-0.33-0.06-0.98-0.09-1.95-0.09H334.32L334.32,261.53z M344.13,272.69v-13.44h9.96v2.28h-7.25
		v2.98h6.75v2.26h-6.75v3.66h7.51v2.26H344.13L344.13,272.69z M356.67,272.69v-13.44h2.64l5.5,8.97v-8.97h2.52v13.44h-2.73
		l-5.42-8.76v8.76H356.67z"/>
	<path class="st3" d="M174.09,333.46v-65.05v-2.87v-2.87v-37.89c4.25-2.64,7.53-6.87,9.11-11.9h2.09
		c2.71,8.6,10.37,14.84,19.34,14.84c8.97,0,16.63-6.24,19.33-14.84h2.09c2.7,8.6,10.36,14.84,19.33,14.84
		c4.72,0,9.09-1.73,12.55-4.63v110.35H174.09z"/>
	<rect x="111.15" y="268.41" class="st3" width="58.26" height="65.05"/>
	<path class="st3" d="M111.15,262.68v-39.09c3.36,2.61,7.5,4.15,11.96,4.15c8.97,0,16.63-6.24,19.33-14.84h2.09
		c2.7,8.6,10.36,14.84,19.33,14.84c1.92,0,3.78-0.29,5.55-0.82v35.77H111.15z"/>
	<rect x="61.95" y="401.65" class="st7" width="368.63" height="20.92"/>
	<path class="st1" d="M61.95,399.25h368.63c1.15,0,2.09,1.07,2.09,2.4v20.92c0,1.33-0.93,2.4-2.09,2.4H61.95
		c-1.15,0-2.09-1.08-2.09-2.4v-20.92C59.86,400.32,60.79,399.25,61.95,399.25L61.95,399.25z M428.49,404.05H64.03v16.12h364.46
		V404.05z"/>
	<path class="st8" d="M389.8,104.17c-10.68,0-21.36,0-32.07,0c1.29,14.4,6.18,28.81,15.23,43.21c8.81,14.02,13.69,28.07,15.09,42.1
		v16.58c0,11.92,9.16,21.68,20.37,21.68l0,0c11.21,0,20.39-9.75,20.39-21.68v-15.48h0.11c-0.04-0.31-0.07-0.62-0.11-0.92v-0.36
		h-0.05c-1.87-13.97-8.11-27.94-19.4-41.91C397.72,132.99,391.45,118.57,389.8,104.17z"/>
	<path class="st1" d="M387.69,106.58h-27.31c0.74,6.13,2.16,12.26,4.31,18.41c2.46,7.03,5.86,14.07,10.29,21.12
		c4.5,7.17,8.01,14.35,10.56,21.52c2.56,7.19,4.17,14.4,4.89,21.62c0.01,0.08,0.01,0.16,0.01,0.23h0.01v16.58
		c0,5.33,2.04,10.17,5.33,13.67c3.25,3.46,7.73,5.6,12.64,5.6c4.92,0,9.4-2.15,12.65-5.61c3.29-3.5,5.33-8.33,5.33-13.67v-15.48
		c0-0.16,0.02-0.32,0.05-0.48l-0.02-0.15l-0.01-0.09c-0.03-0.14-0.05-0.28-0.06-0.43c-0.91-6.68-2.87-13.38-5.95-20.09
		c-3.12-6.8-7.4-13.61-12.92-20.45c-5.94-7.35-10.53-14.73-13.84-22.13C390.63,120.03,388.67,113.3,387.69,106.58L387.69,106.58z
		 M357.72,101.77h32.07v0c1.21,0,2.25,0.9,2.39,2.13c0.8,6.97,2.72,13.94,5.84,20.9c3.14,7.01,7.51,14.03,13.2,21.08
		c5.76,7.13,10.25,14.29,13.54,21.46c3.23,7.03,5.3,14.08,6.29,21.13c0.09,0.26,0.15,0.54,0.15,0.83v0.29l0,0.03
		c0.01,0.07,0.03,0.14,0.04,0.21l0.04,0.35c0.02,0.13,0.03,0.26,0.03,0.39c0,0.25-0.04,0.5-0.11,0.73v14.75
		c0,6.59-2.55,12.59-6.65,16.95c-4.14,4.4-9.85,7.13-16.14,7.13c-6.29,0-12-2.73-16.14-7.13c-4.1-4.36-6.64-10.36-6.64-16.95v-16.53
		c-0.69-6.75-2.21-13.52-4.62-20.3c-2.44-6.86-5.79-13.71-10.09-20.57c-4.62-7.36-8.19-14.72-10.76-22.09
		c-2.55-7.31-4.13-14.63-4.8-21.95c-0.03-0.14-0.04-0.29-0.04-0.44C355.32,102.84,356.39,101.77,357.72,101.77z"/>
	<path class="st9" d="M325.61,104.17c10.72,0,21.43,0,32.11,0c1.29,14.4,6.18,28.81,15.23,43.21c8.77,13.96,13.65,27.94,15.07,41.91
		h0.02v0.18c0.04,0.37,0.07,0.73,0.1,1.1h-0.1v15.48c0,11.92-9.16,21.68-20.37,21.68l0,0c-11.21,0-20.39-9.75-20.39-21.68v-16.76
		h0.01c-1.01-13.97-4.5-27.95-10.78-41.91C330.03,132.98,326.53,118.57,325.61,104.17z"/>
	<path class="st1" d="M325.61,101.77h32.11c1.33,0,2.41,1.08,2.41,2.41v0c0.63,6.93,2.13,13.86,4.56,20.81
		c2.46,7.03,5.86,14.07,10.29,21.12c4.49,7.15,7.98,14.29,10.53,21.42c2.51,7.04,4.12,14.09,4.86,21.17
		c0.05,0.19,0.07,0.39,0.07,0.6v0.15l0.03,0.35l0.01,0.07l0.04,0.49c0.03,0.31,0,0.6-0.08,0.88v14.82c0,6.59-2.54,12.59-6.64,16.95
		c-4.13,4.4-9.84,7.13-16.14,7.13s-12.01-2.73-16.14-7.13c-4.1-4.36-6.65-10.36-6.65-16.95v-16.76l0-0.05
		c-0.5-6.76-1.6-13.54-3.33-20.32c-1.75-6.86-4.15-13.72-7.23-20.56c-3.3-7.34-5.84-14.67-7.68-22.01
		c-1.83-7.34-2.96-14.69-3.43-22.04c-0.08-1.32,0.92-2.46,2.25-2.55C325.51,101.77,325.56,101.77,325.61,101.77L325.61,101.77
		L325.61,101.77z M355.56,106.58H328.2c0.53,6.2,1.56,12.41,3.11,18.62c1.77,7.07,4.21,14.13,7.39,21.2
		c3.2,7.12,5.69,14.24,7.51,21.35c1.8,7.07,2.95,14.15,3.47,21.24c0.01,0.1,0.02,0.21,0.02,0.31c0,0.06,0,0.12-0.01,0.18v16.58
		c0,5.33,2.04,10.17,5.33,13.67c3.25,3.46,7.73,5.61,12.65,5.61c4.92,0,9.39-2.15,12.64-5.6c3.29-3.5,5.33-8.33,5.33-13.67v-15.48
		c0-0.17,0.02-0.35,0.05-0.51l-0.01-0.15c-0.02-0.13-0.04-0.25-0.04-0.38c-0.69-6.77-2.22-13.57-4.66-20.38
		c-2.44-6.84-5.78-13.67-10.06-20.48c-4.62-7.36-8.19-14.72-10.76-22.09C357.84,119.91,356.32,113.25,355.56,106.58z"/>
	<path class="st8" d="M325.61,104.17c-10.68,0-21.36,0-32.07,0c0.51,14.4,2.64,28.81,6.53,43.21c3.77,13.97,5.89,27.94,6.48,41.91
		h-0.03v16.76c0,11.92,9.16,21.68,20.37,21.68l0,0c11.21,0,20.39-9.75,20.39-21.68v-15.48h0.09c-0.88-14.39-4.39-28.81-10.86-43.19
		C330.03,132.98,326.53,118.57,325.61,104.17z"/>
	<path class="st1" d="M323.38,106.58h-27.34c0.31,6.25,0.93,12.53,1.88,18.85c1.07,7.12,2.56,14.24,4.48,21.34
		c1.91,7.08,3.4,14.15,4.49,21.22c1.08,7.03,1.77,14.11,2.07,21.22c0.01,0.15,0,0.29-0.02,0.43v16.43c0,5.33,2.04,10.17,5.33,13.67
		c3.25,3.46,7.73,5.6,12.64,5.6c4.92,0,9.4-2.15,12.65-5.61c3.29-3.5,5.33-8.33,5.33-13.67v-15.48c0-0.18,0.02-0.36,0.06-0.53
		c-0.46-6.83-1.52-13.66-3.23-20.5c-1.76-7.05-4.21-14.11-7.39-21.18c-3.3-7.34-5.84-14.67-7.68-22.01
		C325,119.77,323.92,113.18,323.38,106.58L323.38,106.58z M293.54,101.77h32.07v0.01c1.26,0,2.32,0.98,2.4,2.25
		c0.45,7.05,1.53,14.11,3.3,21.17c1.77,7.07,4.21,14.13,7.39,21.2c3.29,7.32,5.84,14.66,7.67,22.01c1.82,7.28,2.93,14.57,3.39,21.86
		c0.01,0.1,0.02,0.21,0.02,0.32c0,0.23-0.03,0.45-0.09,0.66v14.82c0,6.59-2.55,12.59-6.65,16.95c-4.14,4.4-9.85,7.13-16.14,7.13
		c-6.29,0-12-2.73-16.14-7.13c-4.1-4.36-6.64-10.36-6.64-16.95v-16.76c0-0.11,0.01-0.22,0.02-0.33c-0.3-6.72-0.96-13.47-2.01-20.27
		c-1.06-6.9-2.52-13.8-4.38-20.69c-1.97-7.29-3.49-14.58-4.59-21.86c-1.08-7.19-1.74-14.42-2.01-21.68
		c-0.01-0.09-0.02-0.19-0.02-0.29C291.13,102.84,292.21,101.77,293.54,101.77z"/>
	<path class="st9" d="M261.43,104.17c10.72,0,21.39,0,32.11,0c0.51,14.4,2.64,28.81,6.53,43.21c3.89,14.39,6.02,28.8,6.53,43.19
		h-0.08v15.48c0,11.92-9.16,21.68-20.38,21.68l0,0c-11.21,0-20.39-9.75-20.39-21.68v-16.76h0.06c-0.18-13.97-0.9-27.94-2.19-41.91
		C262.31,132.99,261.61,118.57,261.43,104.17z"/>
	<path class="st1" d="M261.43,101.77h32.11c1.33,0,2.41,1.08,2.41,2.41c0,0.04,0,0.07,0,0.11c0.26,7.01,0.91,14.06,1.97,21.14
		c1.07,7.12,2.56,14.24,4.48,21.34c1.97,7.29,3.49,14.58,4.59,21.86c1.09,7.25,1.76,14.54,2.02,21.87c0.01,0.23-0.02,0.46-0.07,0.67
		v14.89c0,6.59-2.54,12.59-6.64,16.95c-4.13,4.4-9.84,7.13-16.14,7.13c-6.29,0-12.01-2.73-16.14-7.13
		c-4.1-4.36-6.65-10.36-6.65-16.95v-16.76c0-0.18,0.02-0.36,0.06-0.53c-0.09-6.72-0.32-13.49-0.67-20.31
		c-0.37-7-0.86-13.95-1.5-20.86c-0.67-7.26-1.17-14.5-1.54-21.7c-0.36-7.18-0.58-14.42-0.67-21.69c-0.01-1.32,1.04-2.41,2.37-2.42
		L261.43,101.77L261.43,101.77L261.43,101.77z M291.24,106.58h-27.38c0.11,6.33,0.32,12.69,0.64,19.09
		c0.36,7.2,0.86,14.37,1.52,21.5c0.65,7.06,1.15,14.07,1.52,21.04c0.36,6.9,0.58,13.84,0.68,20.84c0.01,0.08,0.01,0.16,0.01,0.25
		c0,0.18-0.02,0.35-0.06,0.52v16.24c0,5.33,2.04,10.17,5.33,13.67c3.25,3.46,7.73,5.61,12.65,5.61c4.92,0,9.39-2.15,12.64-5.6
		c3.29-3.5,5.33-8.33,5.33-13.67v-15.48c0-0.19,0.02-0.38,0.07-0.56c-0.27-6.85-0.92-13.75-1.96-20.67
		c-1.07-7.12-2.56-14.23-4.48-21.33c-1.97-7.29-3.49-14.58-4.59-21.86C292.19,119.65,291.55,113.13,291.24,106.58z"/>
	<path class="st8" d="M261.43,104.17c-10.68,0-21.36,0-32.07,0c-0.22,14.4-0.9,28.81-2.17,43.21c-1.23,13.97-1.87,27.94-2.11,41.91
		H225v16.76c0,11.92,9.16,21.68,20.37,21.68l0,0c11.21,0,20.39-9.75,20.39-21.68v-15.48h0.07c-0.15-14.39-0.88-28.8-2.2-43.19
		C262.31,132.99,261.61,118.57,261.43,104.17z"/>
	<path class="st1" d="M259.07,106.58h-27.36c-0.12,6.48-0.33,12.92-0.65,19.31c-0.36,7.34-0.85,14.58-1.48,21.7
		c-0.62,7.06-1.09,14.01-1.43,20.86c-0.34,7.01-0.56,13.97-0.68,20.88c0,0.19-0.03,0.37-0.07,0.55v16.18
		c0,5.33,2.04,10.17,5.33,13.67c3.25,3.46,7.73,5.6,12.64,5.6c4.92,0,9.4-2.15,12.65-5.61c3.29-3.5,5.33-8.33,5.33-13.67v-15.48
		c0-0.2,0.03-0.4,0.07-0.59c-0.08-6.91-0.3-13.87-0.65-20.88c-0.37-7.21-0.88-14.38-1.53-21.5c-0.67-7.26-1.17-14.5-1.54-21.7
		C259.38,119.49,259.17,113.05,259.07,106.58L259.07,106.58z M229.35,101.77h32.07v0.01c1.31,0,2.38,1.05,2.4,2.37
		c0.09,7.13,0.31,14.3,0.67,21.52c0.36,7.2,0.86,14.37,1.52,21.5c0.67,7.27,1.18,14.5,1.55,21.69c0.36,7.11,0.58,14.27,0.66,21.48
		c0.01,0.08,0.01,0.16,0.01,0.24c0,0.2-0.02,0.39-0.07,0.58v14.9c0,6.59-2.55,12.59-6.65,16.95c-4.14,4.4-9.85,7.13-16.14,7.13
		c-6.29,0-12-2.73-16.14-7.13c-4.1-4.36-6.64-10.36-6.64-16.95v-16.76c0-0.24,0.04-0.47,0.1-0.69c0.12-6.84,0.34-13.63,0.67-20.38
		c0.35-7.12,0.82-14.15,1.43-21.05c0.64-7.28,1.13-14.45,1.48-21.51c0.35-7.16,0.58-14.26,0.69-21.32c0-0.06-0.01-0.12-0.01-0.18
		C226.95,102.84,228.03,101.77,229.35,101.77z"/>
	<path class="st9" d="M197.24,104.17c10.72,0,21.39,0,32.11,0c-0.22,14.4-0.9,28.81-2.17,43.21c-1.27,14.39-1.91,28.8-2.13,43.19
		H225v15.48c0,11.92-9.16,21.68-20.37,21.68l0,0c-11.21,0-20.39-9.75-20.39-21.68v-16.76h0.11c0.65-13.97,2.68-27.95,6.4-41.91
		C194.58,132.98,196.66,118.57,197.24,104.17z"/>
	<path class="st1" d="M197.24,101.77h32.11c1.33,0,2.4,1.08,2.4,2.41c0,0.08,0,0.17-0.01,0.25c-0.11,7.21-0.34,14.37-0.69,21.47
		c-0.36,7.34-0.85,14.58-1.48,21.7c-0.64,7.27-1.12,14.44-1.46,21.5c-0.35,7.23-0.56,14.4-0.67,21.51c0,0.16-0.02,0.31-0.05,0.47
		v14.99c0,6.59-2.54,12.59-6.64,16.95c-4.13,4.4-9.84,7.13-16.14,7.13c-6.29,0-12.01-2.73-16.14-7.13
		c-4.1-4.36-6.65-10.36-6.65-16.95v-16.76c0-0.3,0.05-0.58,0.15-0.84c0.34-6.86,1.01-13.69,2.03-20.47
		c1.06-7.05,2.52-14.12,4.41-21.21c1.89-7.1,3.35-14.21,4.41-21.34c1.06-7.15,1.72-14.27,2.01-21.35
		C194.9,102.79,195.96,101.77,197.24,101.77L197.24,101.77L197.24,101.77z M226.92,106.58h-27.39c-0.34,6.54-0.98,13.06-1.94,19.55
		c-1.08,7.28-2.58,14.57-4.52,21.87c-1.83,6.87-3.25,13.78-4.29,20.7c-1.04,6.88-1.7,13.73-2.02,20.53l0,0.07
		c0,0.25-0.04,0.48-0.11,0.71v16.06c0,5.33,2.04,10.17,5.33,13.67c3.25,3.46,7.73,5.61,12.65,5.61c4.92,0,9.39-2.15,12.64-5.6
		c3.29-3.5,5.33-8.33,5.33-13.67v-15.48c0-0.21,0.03-0.42,0.08-0.61c0.11-7.08,0.33-14.12,0.66-21.1
		c0.35-7.33,0.83-14.57,1.46-21.69c0.64-7.28,1.13-14.45,1.48-21.51C226.58,119.26,226.8,112.9,226.92,106.58z"/>
	<path class="st8" d="M197.24,104.17c-10.68,0-21.4,0-32.11,0c-0.92,14.4-4.42,28.81-10.83,43.21c-6.21,13.96-9.63,27.94-10.7,41.91
		h-0.13v16.76c0,11.92,9.16,21.68,20.37,21.68l0,0c11.21,0,20.39-9.75,20.39-21.68v-15.48h0.05c0.59-14.39,2.63-28.8,6.46-43.19
		C194.58,132.98,196.66,118.57,197.24,104.17z"/>
	<path class="st1" d="M194.73,106.58h-27.37c-0.54,6.59-1.62,13.18-3.26,19.77c-1.82,7.33-4.35,14.67-7.61,22.01
		c-3.04,6.84-5.4,13.69-7.14,20.56c-1.73,6.85-2.83,13.71-3.35,20.55c-0.02,0.21-0.06,0.41-0.12,0.6v15.99
		c0,5.33,2.04,10.17,5.33,13.67c3.25,3.46,7.73,5.6,12.64,5.6c4.92,0,9.4-2.15,12.65-5.61c3.29-3.5,5.33-8.33,5.33-13.67v-15.48
		c0-0.22,0.03-0.42,0.08-0.62c0.31-7.13,0.96-14.24,2.01-21.32c1.07-7.27,2.56-14.56,4.5-21.86c1.89-7.1,3.35-14.21,4.41-21.34
		C193.78,119.12,194.4,112.84,194.73,106.58L194.73,106.58z M165.13,101.77h32.11v0.01l0.09,0c1.32,0.05,2.35,1.17,2.3,2.49
		c-0.3,7.32-0.97,14.61-2.05,21.86c-1.08,7.28-2.58,14.57-4.52,21.87c-1.89,7.09-3.34,14.21-4.39,21.33
		c-1.04,7.08-1.69,14.14-1.99,21.16l0,0.09c0,0.17-0.02,0.33-0.05,0.49v14.99c0,6.59-2.55,12.59-6.65,16.95
		c-4.14,4.4-9.85,7.13-16.14,7.13c-6.29,0-12-2.73-16.14-7.13c-4.1-4.36-6.64-10.36-6.64-16.95v-16.76c0-0.34,0.07-0.67,0.2-0.97
		c0.57-6.86,1.69-13.72,3.42-20.57c1.79-7.11,4.25-14.22,7.42-21.35c3.14-7.06,5.57-14.13,7.33-21.2
		c1.74-7.01,2.82-14.02,3.28-21.03C162.73,102.84,163.81,101.77,165.13,101.77z"/>
	<path class="st9" d="M133.06,104.17c10.72,0,21.39,0,32.07,0c-0.92,14.4-4.42,28.81-10.83,43.21c-6.4,14.39-9.84,28.8-10.79,43.19
		h-0.04v15.48c0,11.92-9.16,21.68-20.37,21.68l0,0c-11.21,0-20.39-9.75-20.39-21.68v-16.76h0.16c1.48-13.97,6.28-27.96,14.99-41.91
		C126.87,132.97,131.74,118.57,133.06,104.17z"/>
	<path class="st1" d="M133.06,101.77h32.07c1.33,0,2.4,1.08,2.4,2.41c0,0.11-0.01,0.21-0.02,0.31c-0.47,7.29-1.6,14.58-3.41,21.87
		c-1.82,7.33-4.35,14.67-7.61,22.01c-3.14,7.05-5.55,14.12-7.3,21.19c-1.74,7.06-2.82,14.12-3.29,21.18
		c-0.01,0.09-0.02,0.17-0.03,0.25v15.08c0,6.59-2.54,12.59-6.64,16.95c-4.13,4.4-9.84,7.13-16.14,7.13
		c-6.29,0-12.01-2.73-16.14-7.13c-4.1-4.36-6.65-10.36-6.65-16.95v-16.76c0-0.4,0.1-0.77,0.27-1.11c0.8-6.89,2.38-13.78,4.81-20.65
		c2.53-7.15,5.98-14.3,10.43-21.42c4.41-7.06,7.81-14.1,10.25-21.13c2.44-7.02,3.95-14.03,4.59-21.03
		C130.79,102.71,131.83,101.77,133.06,101.77L133.06,101.77L133.06,101.77z M162.55,106.58h-27.33c-0.77,6.67-2.29,13.33-4.61,19.99
		c-2.57,7.38-6.11,14.74-10.7,22.09c-4.26,6.83-7.57,13.66-9.98,20.48c-2.39,6.76-3.92,13.52-4.65,20.26
		c-0.01,0.26-0.06,0.52-0.15,0.75v15.91c0,5.33,2.04,10.17,5.33,13.67c3.25,3.46,7.73,5.61,12.65,5.61c4.92,0,9.39-2.15,12.64-5.6
		c3.29-3.5,5.33-8.33,5.33-13.67v-15.48c0-0.21,0.03-0.42,0.08-0.62c0.5-7.18,1.61-14.37,3.39-21.55c1.81-7.33,4.31-14.66,7.58-22
		c3.14-7.06,5.57-14.13,7.33-21.2C160.99,119,162.02,112.79,162.55,106.58z"/>
	<path class="st8" d="M133.13,104.15c-10.68,0-21.39,0-32.15,0c-1.69,14.4-7.94,28.81-19.52,43.21
		c-11.57,14.38-17.76,28.79-19.45,43.19h-0.06v16.76c0,11.92,9.16,21.68,20.37,21.68l0,0c11.21,0,20.39-9.75,20.39-21.68v-16.76h0.1
		c1.32-14.39,6.14-28.82,15.12-43.19C126.94,132.95,131.81,118.55,133.13,104.15z"/>
	<path class="st1" d="M130.47,106.55h-27.38c-0.99,6.73-2.96,13.45-5.96,20.18c-3.31,7.39-7.87,14.77-13.79,22.13
		c-5.66,7.03-9.99,14.05-13.11,21.06c-3.1,6.96-5.01,13.93-5.82,20.89c-0.01,0.08-0.02,0.15-0.04,0.23v16.26
		c0,5.33,2.04,10.17,5.33,13.67c3.25,3.46,7.73,5.61,12.64,5.61c4.92,0,9.4-2.15,12.65-5.61c3.29-3.5,5.33-8.33,5.33-13.66v-16.76
		c0-0.33,0.07-0.65,0.19-0.94c0.71-7.14,2.27-14.29,4.74-21.44c2.56-7.39,6.08-14.75,10.66-22.08c4.41-7.06,7.81-14.1,10.25-21.13
		C128.29,118.82,129.72,112.68,130.47,106.55L130.47,106.55z M100.99,101.74h32.15v0.01c0.07,0,0.14,0,0.22,0.01
		c1.32,0.12,2.29,1.28,2.17,2.6c-0.68,7.4-2.27,14.79-4.84,22.17c-2.57,7.38-6.11,14.74-10.7,22.09c-4.4,7.05-7.78,14.09-10.21,21.1
		c-2.4,6.95-3.89,13.9-4.55,20.84c0,0.24-0.04,0.47-0.1,0.68v16.06c0,6.59-2.55,12.59-6.65,16.95c-4.14,4.4-9.85,7.13-16.14,7.13
		c-6.29,0-12-2.73-16.14-7.13c-4.1-4.36-6.64-10.36-6.64-16.95v-16.76c0-0.29,0.05-0.56,0.14-0.81c0.91-7.25,2.92-14.51,6.15-21.76
		c3.29-7.39,7.84-14.76,13.75-22.12c5.67-7.04,10.02-14.07,13.15-21.08c3.1-6.93,5.02-13.86,5.84-20.79
		C98.67,102.74,99.71,101.74,100.99,101.74z"/>
</g>
<g id="Master_Layer_12">
</g>
</svg>
