<svg xmlns="http://www.w3.org/2000/svg" xmlns:xlink="http://www.w3.org/1999/xlink" viewBox="0 0 64 64"><defs><style>.cls-1{fill:url(#linear-gradient);}.cls-2{fill:url(#linear-gradient-2);}.cls-3{fill:url(#linear-gradient-3);}.cls-4{fill:url(#linear-gradient-4);}.cls-5{fill:url(#linear-gradient-5);}.cls-6{fill:url(#linear-gradient-6);}.cls-7{fill:url(#linear-gradient-7);}.cls-8{fill:url(#linear-gradient-8);}.cls-9{fill:url(#linear-gradient-9);}.cls-10{fill:url(#linear-gradient-10);}.cls-11{fill:url(#linear-gradient-11);}</style><linearGradient id="linear-gradient" x1="16.99" y1="50" x2="19.01" y2="50" gradientUnits="userSpaceOnUse"><stop offset="0" stop-color="#9f2fff"/><stop offset="1" stop-color="#0bb1d3"/></linearGradient><linearGradient id="linear-gradient-2" x1="3" y1="37.47" x2="61" y2="37.47" xlink:href="#linear-gradient"/><linearGradient id="linear-gradient-3" x1="13.02" y1="26" x2="14.97" y2="26" xlink:href="#linear-gradient"/><linearGradient id="linear-gradient-4" x1="21.99" y1="26" x2="24.01" y2="26" xlink:href="#linear-gradient"/><linearGradient id="linear-gradient-5" x1="16.02" y1="26" x2="20.98" y2="26" xlink:href="#linear-gradient"/><linearGradient id="linear-gradient-6" x1="32" y1="20" x2="34" y2="20" xlink:href="#linear-gradient"/><linearGradient id="linear-gradient-7" x1="41.03" y1="20" x2="42.98" y2="20" xlink:href="#linear-gradient"/><linearGradient id="linear-gradient-8" x1="50" y1="20" x2="52" y2="20" xlink:href="#linear-gradient"/><linearGradient id="linear-gradient-9" x1="35.02" y1="20" x2="39.98" y2="20" xlink:href="#linear-gradient"/><linearGradient id="linear-gradient-10" x1="44.02" y1="20" x2="48.98" y2="20" xlink:href="#linear-gradient"/><linearGradient id="linear-gradient-11" x1="33" y1="50.5" x2="47.01" y2="50.5" xlink:href="#linear-gradient"/></defs><g id="{LedgerTransactionConstant.credit}_CARD" data-name="{LedgerTransactionConstant.credit} CARD"><path class="cls-1" d="M17.29,49.29a1,1,0,0,0,1.42,1.42A1,1,0,0,0,17.29,49.29Z"/><path class="cls-2" d="M56.5,13H7.5A4.51,4.51,0,0,0,3,17.5v29A4.51,4.51,0,0,0,7.5,51H15a1,1,0,0,0,0-2H7.5A2.5,2.5,0,0,1,5,46.5V27h6a1,1,0,0,0,0-2H5V21H30a1,1,0,0,0,0-2H5c-.16-1.89.2-3.92,2.5-4h49c2.29.09,2.67,2.1,2.5,4H54a1,1,0,0,0,0,2h5v4H26a1,1,0,0,0,0,2H59V46.5A2.5,2.5,0,0,1,56.5,49H52c-1.64-14.59-22.27-14.58-23.9,0H21a1,1,0,0,0,0,2h7.05C29.69,65.59,50.32,65.58,52,51c3.86,0,8.65.84,9-4.5v-29A4.51,4.51,0,0,0,56.5,13ZM40,60A10,10,0,0,1,30,50c.55-13.27,19.45-13.26,20,0A10,10,0,0,1,40,60Z"/><path class="cls-3" d="M13.81,25a1,1,0,0,0,0,2A1,1,0,1,0,13.81,25Z"/><path class="cls-4" d="M23.71,26.71a1,1,0,0,0-1.42-1.42A1,1,0,0,0,23.71,26.71Z"/><path class="cls-5" d="M20,27a1,1,0,0,0,0-2H17a1,1,0,0,0,0,2Z"/><path class="cls-6" d="M32.62,20.92a1,1,0,0,0,1.09-1.63C32.55,18.22,31.18,20.28,32.62,20.92Z"/><path class="cls-7" d="M42,21a1,1,0,0,0,.19-2A1,1,0,1,0,42,21Z"/><path class="cls-8" d="M50.62,20.92a1,1,0,0,0,1.09-1.63C50.55,18.22,49.18,20.28,50.62,20.92Z"/><path class="cls-9" d="M39,21a1,1,0,0,0,0-2H36a1,1,0,0,0,0,2Z"/><path class="cls-10" d="M48,21a1,1,0,0,0,0-2H45a1,1,0,0,0,0,2Z"/><path class="cls-11" d="M45.29,46.29l-6.44,6.45-4.34-2.6a1,1,0,0,0-1,1.72c.23.08,5.35,3.37,5.51,3.14h0a1.1,1.1,0,0,0,.71-.29l7-7A1,1,0,0,0,45.29,46.29Z"/></g></svg>